<svg id="Layer_5" data-name="Layer 5" xmlns="http://www.w3.org/2000/svg" viewBox="0 0 414.35 309.7"><defs><style>.cls-1{fill:#edcc7e;}.cls-2{fill:#fff;}</style></defs><path class="cls-1" d="M396.87,329.13a19.42,19.42,0,0,1-2.41-5.36,19,19,0,0,1-.67-4.89l-3.22,0a22.34,22.34,0,0,0,3.58,11.94l.08.12c2,3.15,1.53,12.86-1.29,28.87-1.88,10.68-3.28,15.12-6.21,19.79-2,3.18-3.89,5.12-5.64,5.78-2,.76-3.51.36-5.29-.1-2.1-.54-4.48-1.16-7.61.12a15.92,15.92,0,0,0-3.42,2,9.18,9.18,0,0,1-4.75,2.14,12.49,12.49,0,0,1-2.83,0,11.33,11.33,0,0,1-5.24-2,9.08,9.08,0,0,0-5.14-1.76c-3.68,0-6.52,2.61-7.57,3.71a10,10,0,0,0-2.22,3.65,4.11,4.11,0,0,1-1.37,2.09c-1.1.87-2.66,1-6.1,1.27-3.7.29-5.72.39-7.56-.81a10,10,0,0,1-2.3-2.34,13.62,13.62,0,0,1-2.41-4.31,8.49,8.49,0,0,1-.41-3.28,5.18,5.18,0,0,0-.88-3.59,7.26,7.26,0,0,0-7-2.79,5.93,5.93,0,0,0-3.62,2.6,4.65,4.65,0,0,1-2,1.77,3.17,3.17,0,0,1-2.6-.19,6.71,6.71,0,0,0-4.15-.42c-3.16.79-4.41,3.67-5.52,6.21s-2,4.66-4.37,5.67a4.52,4.52,0,0,1-2.28.32,13.91,13.91,0,0,0-5.07.69,22.37,22.37,0,0,0-6.89,3.6l-.52.37c-1.76,1.22-4.1,2-19.91,1.32-18.63-.78-22-2.1-24.91-4a32.15,32.15,0,0,1-5.6-4.57,29,29,0,0,1-3.92-5.49c-1.33-2.27-2.48-4.22-5.19-5.16a4.86,4.86,0,0,0-2.42-.25,26.1,26.1,0,0,1-4.55,0c-3.46-.26-5.3-.43-6-1.18-1.19-1.24-1-3.62-.82-5.53a11.88,11.88,0,0,1,.95-3.82,5.43,5.43,0,0,0,.34-4.21,6.09,6.09,0,0,0-1.61-2.42,27,27,0,0,1-2.36-2.83A15.18,15.18,0,0,1,193,354c-1.18-8.4-1.2-12.15-1.06-14.7s.39-4.37.6-5.87c.41-2.94.68-4.88-.84-7.12-.23-.35-.51-.69-.79-1.05a7.42,7.42,0,0,1-1.69-3,7.56,7.56,0,0,1,0-3.54l-3.13-.71a10.68,10.68,0,0,0,0,5,10.38,10.38,0,0,0,2.3,4.28c.23.29.45.56.64.84.79,1.17.71,2,.32,4.88-.22,1.55-.49,3.5-.63,6.14s-.13,6.64,1.09,15.31a18.49,18.49,0,0,0,3.51,9.31,29.93,29.93,0,0,0,2.61,3.12,3.25,3.25,0,0,1,.92,1.28c.21.61.11.91-.31,2a15.49,15.49,0,0,0-1.15,4.71c-.2,2.29-.5,5.74,1.7,8,1.6,1.68,4,1.86,8.09,2.17a28.25,28.25,0,0,0,5.06,0,2,2,0,0,1,1.11.08c1.52.53,2.19,1.59,3.47,3.76a31.81,31.81,0,0,0,4.33,6,34.75,34.75,0,0,0,6.2,5.08c3.4,2.23,7.08,3.74,26.53,4.55,3.94.16,7.11.24,9.67.24,8.05,0,10.25-.77,12.22-2.13l.57-.41a19.27,19.27,0,0,1,5.95-3.13,10.51,10.51,0,0,1,4-.54,7.63,7.63,0,0,0,3.64-.59c3.52-1.51,4.93-4.74,6.06-7.34s1.8-4,3.34-4.36a3.55,3.55,0,0,1,2.29.32,6.28,6.28,0,0,0,4.89.14,7.67,7.67,0,0,0,3.36-2.78c.65-.86,1-1.27,1.73-1.42a4,4,0,0,1,3.72,1.5c.31.44.32.7.29,1.62a11.53,11.53,0,0,0,.56,4.37,16.84,16.84,0,0,0,2.95,5.33,12.74,12.74,0,0,0,3.06,3c2.84,1.87,5.81,1.64,9.58,1.33s6-.47,7.84-1.95a7.17,7.17,0,0,0,2.36-3.44,7,7,0,0,1,1.55-2.6c.77-.81,2.83-2.69,5.29-2.72a6,6,0,0,1,3.4,1.28,14.45,14.45,0,0,0,6.58,2.46,15.32,15.32,0,0,0,3.6,0,12.26,12.26,0,0,0,6.23-2.73,13.27,13.27,0,0,1,2.75-1.67c2.14-.87,3.74-.46,5.58,0a10.87,10.87,0,0,0,7.24,0c.9-.34,3.65-1.38,7.22-7.08s4.9-11,6.66-20.94c4-22.46,2.53-28.44.85-31.14Z" transform="translate(-42.83 -95.15)"/><path class="cls-1" d="M61.88,175.16a4.25,4.25,0,0,0,2.31-.49c.28-.13.62-.28,1.07-.44h0a18,18,0,0,1,4.84-.88,7,7,0,0,1,3.35.64,24.49,24.49,0,0,0,5.41,1.44c2.86.44,4.74.73,6.44-.39a5.76,5.76,0,0,0,2-2.42,4.25,4.25,0,0,1,1.43-1.81c1.13-.81,1.74-.86,2.06-.76.51.17.92,1.13,1.25,1.9a7.25,7.25,0,0,1,.58,2.51,12.17,12.17,0,0,0,.64,3.25c.55,1.64,1.48,4.4,3.87,4.73a4.44,4.44,0,0,0,4.11-2.34,5.2,5.2,0,0,0,.56-3.59,11.94,11.94,0,0,1-.1-1.66,9,9,0,0,1,1.08-4.4,6.18,6.18,0,0,1,1.68,2,5.56,5.56,0,0,1,.91,4,2,2,0,0,1-.27.68c-.15.28-.34.65-.6,1.22-1,2.22-2.39,5.25-2,8.57a10.8,10.8,0,0,0,1,3.11c2.71,6,7.43,10.86,9,12.47,6.84,7.1,9,7.42,10.51,7.18a5.43,5.43,0,0,0,2.15-.89,16.27,16.27,0,0,1,2.92-1.43,29.13,29.13,0,0,1,2.8-1,6.54,6.54,0,0,0-.36,2.83,5.4,5.4,0,0,0,1.62,3.34,7.26,7.26,0,0,1,1.43,2.17,9,9,0,0,1,.49,5.51,3.19,3.19,0,0,1-.24.62c-.19.4-.5,1.07-1.1,2.56-1.4,3.48-1.45,4.18-1.36,4.85.35,2.86,3.33,4.36,4.93,5.16,4.53,2.27,8.81,2.11,12.24,2,5.82-.23,9-.35,11.88-2.76a13,13,0,0,0,2.08-2.29,4.62,4.62,0,0,1,2.2-1.91c1.18-.43,2.22-.27,4.5.09a27.58,27.58,0,0,1,3.53.82,32.1,32.1,0,0,0,5.32,1.14,5.85,5.85,0,0,0,4.59-.92,3.51,3.51,0,0,0,1.1-1.6,5,5,0,0,1,3.53-3.07,1.92,1.92,0,0,1,1.41.19,1.58,1.58,0,0,1,.41,1.28,3.15,3.15,0,0,1-.61,1.69c-2.33,3.86-3.51,5.8-3.72,8.1a10.88,10.88,0,0,0,.64,4.44,13.66,13.66,0,0,0,1.09,2.32c.28.51.63,1.15,1.09,2.07.68,1.34,1,2,1.19,2.49.44,1.21.43,2,.29,5.33,0,.88-.07,1.91-.11,3.16a26.45,26.45,0,0,0,0,4.19,12.69,12.69,0,0,0,.85,3.09,17.25,17.25,0,0,1,.85,2.76,26,26,0,0,1,.52,4.09,34.39,34.39,0,0,1,0,4.54l3.21.21a37.32,37.32,0,0,0,0-5,29.21,29.21,0,0,0-.59-4.58,20.44,20.44,0,0,0-1-3.21,9.78,9.78,0,0,1-.67-2.4,25,25,0,0,1,0-3.64c0-1.23.07-2.26.11-3.13.13-3.42.18-4.71-.49-6.55a30,30,0,0,0-1.33-2.83c-.49-1-.86-1.64-1.15-2.18a9.62,9.62,0,0,1-.86-1.81,7.34,7.34,0,0,1-.48-3.11c.14-1.56,1.18-3.29,3.28-6.74a6.28,6.28,0,0,0,1.06-3.32,4.64,4.64,0,0,0-1.55-3.75,4.86,4.86,0,0,0-3.9-.93c-3.36.43-5.3,3.49-5.51,3.84a8,8,0,0,0-.59,1.22c-.11.28-.11.28-.18.33a3,3,0,0,1-2.12.2,29.24,29.24,0,0,1-4.85-1,30.9,30.9,0,0,0-3.91-.91c-2.5-.39-4.15-.65-6.12.08a7.62,7.62,0,0,0-3.65,3,10.31,10.31,0,0,1-1.58,1.77c-2,1.7-4.49,1.8-9.93,2-3.23.12-6.88.26-10.68-1.65-1-.49-3-1.52-3.18-2.61a17.06,17.06,0,0,1,1.15-3.32c.57-1.41.86-2,1-2.4a5.82,5.82,0,0,0,.43-1.13,12.23,12.23,0,0,0-.63-7.63,10.47,10.47,0,0,0-2-3c-.59-.68-.77-.92-.83-1.53a3.79,3.79,0,0,1,.36-1.89,2.84,2.84,0,0,0-.19-3.06c-1.48-1.73-4.39-.6-7,.39a19.14,19.14,0,0,0-3.43,1.68,2.61,2.61,0,0,1-1,.47c-.06,0-1.51.16-7.67-6.24-1.45-1.51-5.88-6.11-8.36-11.57a7.23,7.23,0,0,1-.71-2.2c-.32-2.41.79-4.85,1.69-6.82.23-.5.39-.83.52-1.07a5.06,5.06,0,0,0,.57-1.5,8.76,8.76,0,0,0-1.34-6.36c-.62-1-2.5-4-5-3.52-2.82.52-3.65,5.18-3.69,7.57a14.83,14.83,0,0,0,.11,2.06c.1,1,.1,1.23-.11,1.59a2,2,0,0,1-.9.82c-.32-.14-.76-1-1.29-2.58a9.89,9.89,0,0,1-.48-2.51,10.1,10.1,0,0,0-.82-3.48c-.55-1.3-1.31-3.07-3.21-3.69-2.24-.73-4.27.72-4.93,1.2a7.39,7.39,0,0,0-2.42,3,2.71,2.71,0,0,1-.89,1.2c-.61.4-1.63.29-4.18-.1A21.31,21.31,0,0,1,74.58,171a10.13,10.13,0,0,0-4.64-.85,21.36,21.36,0,0,0-5.78,1.1v0c-.53.19-.93.37-1.26.52-.55.24-.58.24-.68.23-1-.1-2.16-2-2.68-3.63a8.92,8.92,0,0,1,1.18-7.14,7.28,7.28,0,0,1,4.11-3.13,5.6,5.6,0,0,1,2.38,0,23.23,23.23,0,0,0,4.58.2c2.57-.14,4-.21,5.16-1.23,1.48-1.29,1.64-3.75,2-8.66l.08-1.2c.14-2.28.21-3.42.42-3.62.63-.62,2.31-.6,4.87-.56,1,0,1.75.08,2.37.13,1.45.12,2.71.23,3.87-.77a4.77,4.77,0,0,0,1-5.88c-1-1.47-2.57-1.58-4.26-1.68a18,18,0,0,1-5.34-1,4.18,4.18,0,0,1-1.67-.87c-.22-.38-.06-.94.24-1.81a4.2,4.2,0,0,0,0-3.67c-1-1.68-3-1.46-4.66-1.26a10,10,0,0,1-5.19-.37A7.73,7.73,0,0,1,66,120.08a4.62,4.62,0,0,1,.54-3.3,2.34,2.34,0,0,1,.85-.7,5.18,5.18,0,0,0,1.64-1.37c1.09-1.42,1.29-3.26.74-6.82a33.45,33.45,0,0,0-1.35-5.6c-.47-1.49-.51-1.75-.33-2.12.29-.6,1.17-1.4,3.68-1.77,1.45-.22,3.86.44,6.6,1.81a15.42,15.42,0,0,1,3.93,2.59,8.44,8.44,0,0,0,3.25,2,14.59,14.59,0,0,0,7.13.41c1.52-.2,2.22-.26,2.51.09a2.57,2.57,0,0,1,.31,1.51,6,6,0,0,0,1.58,4.3,7,7,0,0,0,3.57,1.84,8.88,8.88,0,0,0,5.3-.39,6.24,6.24,0,0,1,3.21-.42c1.27.21,2.15.84,4.07,2.23a14.63,14.63,0,0,1,2.76,2.55,5.87,5.87,0,0,0,3,2.17,6.28,6.28,0,0,0,4.23-.37,4.62,4.62,0,0,1,2.32-.42c2.08.24,3.53,2.11,4.8,3.76l.41.53a48.05,48.05,0,0,0,19.42,13.37,15,15,0,0,0,7.54,1.17,20,20,0,0,1,7.58.83c11,3,21.31,10.79,20.9,15.79,0,.17,0,.36-.07.56a7.38,7.38,0,0,0,.71,5c1.23,2,3.32,2.78,5.34,3.5a18.2,18.2,0,0,0,4.34,1,4,4,0,0,1,2.11.62,6.87,6.87,0,0,1,2.31,3.88,9.71,9.71,0,0,1,.15,4.25,7.21,7.21,0,0,0,.71,5.08,8.07,8.07,0,0,0,4,3.18c2.83,1.14,5.26.46,7.21-.08,1.5-.42,2.38-.63,3-.23.43.3.74,1.7,1.17,3.64s1.12,5.1-.08,8.32a8.08,8.08,0,0,1-.92,1.77,17.27,17.27,0,0,0-1.74,3.54c-.83,2.26-1.78,4.82-.2,6.44s4.26.72,4.78.52a6.48,6.48,0,0,0,3.11-2.55,5,5,0,0,1,1.82-1.72,5.57,5.57,0,0,1,2.43-.52c1.63.06,2.83,1.11,5.39,3.48,1.83,1.7,3.15,3,4.16,3.9,2.56,2.43,3.17,3,4.66,3.87a22,22,0,0,0,7.06,2.56c2.24.43,5.61,1.09,9-.55,1-.49,3.33-1.63,3.68-4,.3-2.09-1.17-3.71-1.8-4.4a8.2,8.2,0,0,0-3.5-2.22,4.88,4.88,0,0,1-1.88-1.06,5.44,5.44,0,0,1-1.48-3.34c-.34-3.35,2.7-6.15,4.55-7.27,2.83-1.72,5.82-1.42,8.23-1.18,9.61,1,19.41,7.4,21,13.74.07.26.15.64.26,1.18.24,1.13.63,2.94,1.28,5.67.47,2,1.13,4.62,1.41,5.65,2.28,8.15,9.28,14.95,11.38,16.83,1.47,1.33,2.77,2.32,3.91,3.19,2.44,1.85,3.52,2.74,3.83,4.44q0,.17.06.39a10.69,10.69,0,0,0,5.12,8.08,36.4,36.4,0,0,1,6.54,5.74c3,3.13,6.15,6.37,11.9,8.14a28.34,28.34,0,0,0,3.83.89,25.64,25.64,0,0,0,7.85.25,15.53,15.53,0,0,1,4.46,0c3.55.59,8.28,2.73,10,6.85a9.34,9.34,0,0,1,.65,3.94l3.21.14a12.47,12.47,0,0,0-.88-5.29c-2.18-5.35-8.05-8.09-12.41-8.81a18.57,18.57,0,0,0-5.3-.06,22.41,22.41,0,0,1-7-.22,27.27,27.27,0,0,1-3.44-.79c-5-1.53-7.54-4.21-10.53-7.3a39,39,0,0,0-7.15-6.24,7.93,7.93,0,0,1-2.42-2.3,8.23,8.23,0,0,1-1.22-3.54c0-.18-.05-.34-.07-.48-.55-3-2.53-4.5-5-6.42-1.1-.83-2.34-1.78-3.71-3-1.93-1.74-8.39-8-10.43-15.32-.28-1-.92-3.58-1.38-5.53-.64-2.69-1-4.47-1.26-5.6-.13-.57-.22-1-.28-1.26-1.88-7.66-12.76-15.06-23.77-16.17-2.58-.26-6.47-.66-10.22,1.62-3.1,1.88-6.55,5.72-6.08,10.34a8.71,8.71,0,0,0,2.44,5.33,7.74,7.74,0,0,0,3,1.75,5.11,5.11,0,0,1,2.26,1.39c.35.39,1.08,1.18,1,1.76s-1.42,1.34-1.91,1.59c-2.41,1.17-5,.66-7,.28a18.77,18.77,0,0,1-6.07-2.19c-1.16-.67-1.61-1.09-4.06-3.41-1-1-2.35-2.22-4.18-3.92-2.65-2.46-4.57-4.24-7.47-4.35a8.7,8.7,0,0,0-4,.88,8,8,0,0,0-2.93,2.65,3.5,3.5,0,0,1-1.64,1.46,5.78,5.78,0,0,1-1.32.26,11.92,11.92,0,0,1,.86-3.08,13.64,13.64,0,0,1,1.44-2.94,11.15,11.15,0,0,0,1.21-2.37c1.53-4.11.67-8,.21-10.13-.65-2.95-1-4.57-2.47-5.59-1.86-1.29-3.88-.73-5.66-.23s-3.33.93-5.14.2a4.81,4.81,0,0,1-2.44-1.86c-.52-.86-.46-1.59-.28-3a12.63,12.63,0,0,0-.25-5.54,9.79,9.79,0,0,0-3.57-5.63,7,7,0,0,0-3.57-1.18,14.64,14.64,0,0,1-3.63-.81c-1.89-.67-3.07-1.15-3.66-2.13a4.38,4.38,0,0,1-.28-2.93c0-.26.07-.51.09-.72.61-7.42-11.78-16.06-23.28-19.16a23,23,0,0,0-8.61-.93,12,12,0,0,1-6.19-1,45.63,45.63,0,0,1-18-12.35l-.39-.5c-1.42-1.83-3.55-4.6-7-5a7.85,7.85,0,0,0-3.8.6,3.11,3.11,0,0,1-2.24.29c-.6-.17-.83-.4-1.51-1.18a17.8,17.8,0,0,0-3.3-3c-2.13-1.53-3.41-2.46-5.43-2.79a9.37,9.37,0,0,0-4.7.52,5.8,5.8,0,0,1-3.57.34,4,4,0,0,1-2-1,2.9,2.9,0,0,1-.67-2.21,5.24,5.24,0,0,0-1.08-3.44c-1.46-1.73-3.55-1.44-5.39-1.19a11.57,11.57,0,0,1-5.66-.27,5.27,5.27,0,0,1-2.16-1.33,18.77,18.77,0,0,0-4.63-3.06c-3.41-1.7-6.35-2.43-8.5-2.11-3.13.46-5.19,1.66-6.1,3.55-.77,1.58-.36,2.86.16,4.5a31.36,31.36,0,0,1,1.23,5.11c.55,3.52.09,4.11-.1,4.37a2.12,2.12,0,0,1-.73.56A5.51,5.51,0,0,0,64,114.87a7.53,7.53,0,0,0-1.14,5.65,11,11,0,0,0,6.57,8.25,12.87,12.87,0,0,0,6.79.59,11.89,11.89,0,0,1,1.47-.12c0,.24-.17.58-.25.83a5.18,5.18,0,0,0,0,4.45c.56,1,1.5,1.61,3.36,2.28A21.16,21.16,0,0,0,87,138a5.94,5.94,0,0,1,1.78.25,1.72,1.72,0,0,1-.41,1.67,3.63,3.63,0,0,1-1.49,0c-.68-.06-1.53-.13-2.61-.15-3.36,0-5.57-.07-7.15,1.47-1.1,1.06-1.16,2.05-1.39,5.73l-.08,1.19c-.18,2.79-.38,5.95-.85,6.44-.34.3-1.54.36-3.22.45a19.13,19.13,0,0,1-4-.18A8.46,8.46,0,0,0,64,155a10.39,10.39,0,0,0-6,4.41,12.1,12.1,0,0,0-1.61,9.92c.29.92,1.89,5.52,5.42,5.88" transform="translate(-42.83 -95.15)"/><path class="cls-2" d="M119,304.8c-1.67.61-4.93,1.21-6.54-.41-1.36-1.37-1.66-4.41,0-7.44.18-.3.37-.6.56-.9l0,0a21.92,21.92,0,0,1,4.44-5.25c2-1.73,3.8-2.68,5.33-2.84,2.61-.26,5.52.87,6,2.32.09.27.1.63-.35,1.65-.31.61-.6,1.22-.93,1.81l-.61,1.11-.14.25c-3.3,5.81-5.07,8.77-7.74,9.74M56.52,309c-2.15,2.39-4.82,5.39-7.33,4.94-1.57-.28-3.11-1.78-3.15-3.08-.06-1.82,2.9-3.55,4.66-4.28a10.09,10.09,0,0,1,3.94-.67,21.17,21.17,0,0,1,4,.43c-.65.88-1.37,1.77-2.17,2.66m146.67-19.17c1.52-1.24,3.84-3.11,6.62-2.8,1.33.14,2.82.67,3.09,1.38s-.3,2.36-3.72,5.16c-3.12,2.55-7.79,4.39-9.36,3a2.72,2.72,0,0,1-.73-1.7,15.72,15.72,0,0,1,4.1-5.06m-9.67,10.81a8.15,8.15,0,0,0,.27,5.47c2.42,5.46,10.51,5.82,12.6,5.82h.21c5.51-.06,9.36-2.57,12.75-4.78a41.6,41.6,0,0,0,12.22-12.35,1.61,1.61,0,1,0-2.7-1.75,38.45,38.45,0,0,1-11.27,11.41c-3.18,2.06-6.46,4.2-11,4.26-.32,0-8.08.05-9.83-3.91-.69-1.56-.26-3.22.74-6l.24.23c3.51,3,10-.1,13.5-3,4.06-3.32,5.64-6.28,4.7-8.78-1-2.65-4.35-3.29-5.75-3.45-4.11-.45-7.29,2.12-9,3.5a19.3,19.3,0,0,0-5.16,6.54,54.45,54.45,0,0,1-5.88,5.4,40.75,40.75,0,0,1-8.5,5.41,22.66,22.66,0,0,1-5.65,2.08,15.77,15.77,0,0,1-10.16-.92,15.29,15.29,0,0,1-8.06-10.95,20,20,0,0,0,3.19.26,15.94,15.94,0,0,0,7-1.53,26.76,26.76,0,0,0,6.72-5.12,35.37,35.37,0,0,0,2.85-3.15,1.6,1.6,0,1,0-2.5-2,33.53,33.53,0,0,1-2.6,2.86,24,24,0,0,1-5.87,4.53,13.87,13.87,0,0,1-7.95,1c.08-.15.16-.3.25-.45,6.1-9,13.72-21.44,21.82-35.6a1.61,1.61,0,0,0-2.79-1.6c-12,20.89-23.26,38.56-29.51,46.12a20.17,20.17,0,0,1-7.67,5.78c-1.9.79-8.34,3.16-11.43.21a6.75,6.75,0,0,1-1.75-4.59c0-1.36.4-2.15,2-5l.42-.74c.55-1,1-1.81,1.32-2.55.83-1.61,1.62-3.26,2.33-5a1.61,1.61,0,1,0-3-1.24s0,.07,0,.12c-1.87-1.94-5.23-2.83-8.13-2.53-2.23.22-4.56,1.39-7.11,3.59a25.12,25.12,0,0,0-5.06,6c-.24.35-.45.7-.65,1.06l-.63,1.07-.79,1.33C105.74,301.81,103,306,99.57,309c-4.43,3.93-11.87,5.71-18.11,4.34A11.87,11.87,0,0,1,76,310.67a35.55,35.55,0,0,0-9.19-5.15c-1-.41-2-.77-3-1.09a39.3,39.3,0,0,0,2.9-5.78,166.69,166.69,0,0,1,20.16-36.79c5.1-6.79,7.51-9.19,10.76-10.71a21.92,21.92,0,0,1,10.23-1.94A1.61,1.61,0,0,0,108,246a25.19,25.19,0,0,0-11.71,2.25c-3.81,1.78-6.5,4.4-12,11.69a169.52,169.52,0,0,0-20.58,37.56,38,38,0,0,1-3.11,6c-4.55-1.1-8.35-1.07-11.2.12-1.59.66-6.77,3.16-6.63,7.35.09,2.83,2.69,5.59,5.8,6.14a5.71,5.71,0,0,0,1.08.1c3.77,0,6.88-3.47,9.2-6.06a43.6,43.6,0,0,0,3.14-3.94c1.11.35,2.3.77,3.6,1.29a32.07,32.07,0,0,1,8.44,4.73,15.11,15.11,0,0,0,6.68,3.26c7.29,1.6,15.7-.44,20.93-5.07a41.27,41.27,0,0,0,6.65-7.91,7,7,0,0,0,1.78,3.14c3.33,3.34,8.85,1.56,9.92,1.16a10.25,10.25,0,0,0,4.6-3.48,9,9,0,0,0,2.39,4.24,9.15,9.15,0,0,0,6.53,2.32,23.49,23.49,0,0,0,15.24-6.44c-1.14,2.64-2.24,5.32-3.24,8a1.61,1.61,0,0,0,1,2.07,1.54,1.54,0,0,0,.56.1,1.62,1.62,0,0,0,1.51-1.05c1.2-3.24,2.53-6.49,3.94-9.65.87-1.94,1.79-3.88,2.74-5.8.1.31.21.62.33.92a18,18,0,0,0,8.81,9.71,19.05,19.05,0,0,0,12.18,1.18,26.12,26.12,0,0,0,6.39-2.32,43.8,43.8,0,0,0,9.13-5.81c.47-.38.95-.76,1.41-1.15" transform="translate(-42.83 -95.15)"/><path class="cls-2" d="M390.8,301.63c-1.53,1.87-3,3.64-5.32,4.25-1.59.4-4.21.46-5.05-.69-.65-.89-.18-2.58.7-5.51a22.9,22.9,0,0,1,2.25-5.12,15.21,15.21,0,0,1,1.1-1.5,15.5,15.5,0,0,1,3.91-3.94c1.06-.65,3.26-2,5.56-1.34,0,0,2.45.74,2.89,2.33a.88.88,0,0,1,0,.45c-.36.74-.7,1.5-1,2.27s-1,1.82-1.72,3.17c-2.72,4.92-3,5.31-3.3,5.63M270.56,315.45c-2.33.62-9.43,2.48-11.25.15a3.07,3.07,0,0,1-.53-2.77,2.37,2.37,0,0,1,1.18-.93c5.35-2.4,12-2.59,13.82-2.59h.51a56,56,0,0,0,8.21-.44c-3.91,4.47-8.93,5.78-11.94,6.57m41.09-18.77a17.35,17.35,0,0,1,7.07-8.37c1.5-.85,3.21-1.82,4.8-1.3a3.13,3.13,0,0,1,2.1,2c.16.94-.62,1.9-1.83,3.27a14.57,14.57,0,0,1-8,4.51,13.63,13.63,0,0,1-4.23,0l.06-.16m144.88-2.42a1.6,1.6,0,0,0-2.25.33c-2.08,2.76-7.45,9.41-12.37,11.35-.81.31-2.7,1.06-3.62.44a2.49,2.49,0,0,1-.78-1.3c-.39-1.16-.1-2.26.45-4.11a17.49,17.49,0,0,1,.75-2.06,18,18,0,0,0,1-3c.59-2.34.51-3.36.19-4.18-1-2.68-4.05-3.4-4.4-3.48-1.9-.4-3.71.07-6.25,1.62-.48.29-.93.59-1.36.9a47.13,47.13,0,0,0,2.81-6.55,1.61,1.61,0,0,0-3.05-1,42.18,42.18,0,0,1-7,12.86c-1.9,2.37-6.93,8.66-14.66,10.63-1.67.43-4.78,1.23-6.82-.29a5.47,5.47,0,0,1-1.72-2.54c-1.23-3.17,0-6.44,1.24-9.62a16.89,16.89,0,0,0,1.12-2.5,30.34,30.34,0,0,1,2-3.48,1.6,1.6,0,0,0-.41-2.23,1.62,1.62,0,0,0-2.24.41c-.16.24-.31.48-.46.72a8.81,8.81,0,0,0-3.91-2.41c-3.69-1.1-6.83.86-8.17,1.69a18.43,18.43,0,0,0-4.72,4.66c-.4.5-.71.91-1,1.24a2.27,2.27,0,0,0-.18.25l-.19.32c-.15.22-.26.41-.36.58a4.31,4.31,0,0,1-.63.89c-3.2,3.51-9.39,2.78-9.45,2.77a13.14,13.14,0,0,1-4.72-1.62,7,7,0,0,1-4.54-6.6c-.09-.85-.26-2.44-1.79-2.55-1.68-.1-2.22,1.88-2.44,2.73-2,7.38-13.18,17.3-16.07,19.55-.95.73-1.33.73-1.46.7a.78.78,0,0,1-.41-.41c-.14-.32.16-1.06.63-2.16.95-2.23,1.52-3.58,1.83-4.14a41,41,0,0,0,2.86-6.85h0a31.76,31.76,0,0,0,2.56-6.09,1.61,1.61,0,0,0-3.08-.92,27.56,27.56,0,0,1-3.77,7.86c-2.74,4-8,9.13-17.34,11.36-3.47.82-6.74,1.6-9.2-.15a8.28,8.28,0,0,1-3-5.44,6.83,6.83,0,0,1,.15-2.45,16.66,16.66,0,0,0,5.89.07,17.71,17.71,0,0,0,9.86-5.55c1.34-1.53,3-3.43,2.57-5.95a6.19,6.19,0,0,0-4.26-4.52c-2.94-1-5.52.49-7.39,1.56a20.34,20.34,0,0,0-8.42,9.88c-.22.49-.43,1-.63,1.46a60.68,60.68,0,0,1-5.47,2.74,80.31,80.31,0,0,1-13.8,4.86,12.28,12.28,0,0,0,.33-2.27,13.18,13.18,0,0,0-2.67-8.19c-3.76-5.34-10-7.26-17.89-9.7l-2.11-.63c-3.58-1.05-5.94-1.74-8-4a6.37,6.37,0,0,1-2-4.08,6.46,6.46,0,0,1,2.15-4.22c5.76-6.14,15-9.92,15.09-10,7.89-3.19,13.11-5.29,20.54-5.47,3.63-.09,12.12-.29,14.12,3.6a7.26,7.26,0,0,1,.36,4.75c-.3,1.19-.89,2.31-3,4.51a41.13,41.13,0,0,1-8.47,6.66,1.61,1.61,0,1,0,1.64,2.76,44.21,44.21,0,0,0,9.14-7.18c2.29-2.37,3.33-4,3.83-6a10.41,10.41,0,0,0-.62-7c-2.93-5.68-12.47-5.45-17.05-5.35-8,.2-13.45,2.39-21.67,5.71-.41.16-10,4.07-16.23,10.74a8.35,8.35,0,0,0-.23,12.66c2.68,2.95,5.69,3.83,9.49,4.95l2.06.61c8.11,2.5,13.24,4.25,16.21,8.48a10,10,0,0,1,2.09,6.2,8.12,8.12,0,0,1-.83,3.19,55.43,55.43,0,0,1-10.72.87c-.36,0-8.79-.26-15.74,2.86a5.3,5.3,0,0,0-2.74,2.43,6.2,6.2,0,0,0,.87,6.18c1.41,1.8,3.76,2.38,6.25,2.38a34.24,34.24,0,0,0,8.36-1.4c3.15-.83,9-2.37,13.59-7.63a22.59,22.59,0,0,0,2.2-2.82,79.13,79.13,0,0,0,16.74-5.57c1.06-.46,2.11-1,3.15-1.49a9.64,9.64,0,0,0,.06,1.68,11.41,11.41,0,0,0,4.3,7.69c3.65,2.59,8,1.56,11.8.66a33.27,33.27,0,0,0,13.66-6.62c-.13.32-.27.65-.43,1-.67,1.58-1.31,3.08-.63,4.68a4,4,0,0,0,2.52,2.25,3.42,3.42,0,0,0,.94.12,5.74,5.74,0,0,0,3.34-1.38c.13-.1,11.7-9.37,16-18.12a6.6,6.6,0,0,0,.41.85,11.56,11.56,0,0,0,4.87,4.39,16.25,16.25,0,0,0,5.91,2,18.24,18.24,0,0,0,8.08-1c-.94,3.17-1.59,5.7-.06,7.81,1.85,2.53,5.71,2.6,8.45,1.9,3.37-.87,5.3-3.23,7-5.33a6.42,6.42,0,0,0,.62-.87,11.18,11.18,0,0,0,.58,2.18,8.47,8.47,0,0,0,2.8,4,8.17,8.17,0,0,0,5,1.53,18.2,18.2,0,0,0,4.53-.7,25.89,25.89,0,0,0,8.91-4.33c-.22.35-.43.7-.64,1.06a1.61,1.61,0,1,0,2.79,1.6,74.6,74.6,0,0,1,5.74-8.55,27.19,27.19,0,0,1,7.33-7c2.19-1.34,3.17-1.38,3.91-1.22,0,0,1.66.39,2.07,1.46a6,6,0,0,1-.31,2.27,14.76,14.76,0,0,1-.87,2.55,20.3,20.3,0,0,0-.89,2.41c-.56,1.9-1.14,3.86-.41,6a5.44,5.44,0,0,0,2,2.94,4.78,4.78,0,0,0,2.74.8,10.67,10.67,0,0,0,3.85-.91c5.49-2.16,11-8.71,13.77-12.41a1.61,1.61,0,0,0-.32-2.26" transform="translate(-42.83 -95.15)"/></svg>